<?xml version="1.0" standalone="no"?>
<!DOCTYPE svg PUBLIC "-//W3C//DTD SVG 20010904//EN"
 "http://www.w3.org/TR/2001/REC-SVG-20010904/DTD/svg10.dtd">
<svg version="1.0" xmlns="http://www.w3.org/2000/svg"
 width="512.000000pt" height="512.000000pt" viewBox="0 0 512.000000 512.000000"
 preserveAspectRatio="xMidYMid meet">
<metadata>
Created by potrace 1.14, written by Peter Selinger 2001-2017
</metadata>
<g transform="translate(0.000000,512.000000) scale(0.100000,-0.100000)"
fill="#000000" stroke="none">
<path d="M2525 5106 c-77 -38 -98 -81 -99 -203 0 -51 -5 -93 -9 -93 -5 0 -18
11 -29 25 -56 72 -179 76 -240 8 -34 -38 -45 -85 -44 -200 1 -107 0 -112 -21
-118 -12 -3 -28 -12 -37 -20 -11 -12 -21 -13 -41 -5 -38 15 -102 12 -135 -5
-16 -8 -42 -32 -57 -52 l-28 -36 -2 -632 c-2 -550 -1 -639 13 -686 37 -126
116 -223 232 -283 l32 -17 0 -1394 0 -1395 473 2 472 3 0 1392 c0 765 2 1393
5 1396 3 2 25 15 50 29 96 55 154 129 225 289 26 57 53 118 60 134 183 405
297 666 301 688 8 48 -13 102 -56 141 -22 20 -48 36 -58 37 -9 0 -25 2 -34 4
-36 7 -98 -18 -127 -50 -15 -18 -43 -68 -61 -111 -18 -44 -45 -106 -60 -139
-15 -33 -42 -97 -61 -141 l-34 -82 -42 2 -43 1 0 588 c0 582 0 590 -21 627
-38 67 -129 99 -201 71 -15 -5 -40 -24 -56 -41 -16 -16 -32 -30 -36 -30 -3 0
-6 39 -6 87 0 99 -22 159 -71 193 -37 27 -115 35 -154 16z"/>
<path d="M4184 3641 c-83 -51 -94 -102 -60 -282 14 -74 27 -145 30 -159 7 -40
46 -253 51 -279 l4 -24 -22 20 c-50 46 -106 55 -168 29 -75 -31 -99 -83 -99
-211 l0 -80 -19 40 c-55 118 -230 117 -286 -1 -16 -35 -18 -77 -17 -523 1
-462 2 -489 21 -552 33 -104 103 -191 200 -246 25 -15 48 -28 51 -31 3 -2 5
-304 5 -670 l0 -667 473 0 473 0 0 673 c0 557 2 672 13 672 20 0 116 68 154
109 43 47 87 133 101 199 14 67 15 812 1 861 -19 68 -78 110 -158 112 -31 1
-49 6 -46 13 9 27 195 686 215 765 21 80 22 92 9 130 -15 46 -66 97 -106 107
-49 13 -116 -4 -150 -37 -40 -39 -42 -43 -104 -264 -27 -99 -56 -200 -64 -225
-8 -25 -35 -123 -62 -218 -42 -154 -59 -198 -61 -159 -2 28 -14 100 -18 107
-3 4 -7 32 -11 61 -3 30 -8 56 -9 59 -3 5 -45 224 -50 265 -3 20 -10 56 -20
105 -8 40 -27 142 -32 175 -18 114 -147 182 -239 126z m76 -1096 c-5 -14 -12
-25 -14 -25 -3 0 -5 42 -4 93 l2 92 13 -68 c8 -45 9 -76 3 -92z"/>
<path d="M395 2519 c-54 -34 -72 -80 -72 -182 0 -43 -3 -81 -7 -84 -3 -4 -6 2
-6 13 0 46 -78 104 -142 106 -69 1 -133 -42 -158 -106 -17 -46 -12 -976 6
-1045 28 -106 106 -204 209 -262 l52 -29 1 -448 c0 -246 1 -455 1 -465 1 -16
28 -17 473 -15 l473 3 0 464 0 463 40 20 c119 60 212 189 231 318 11 75 7 806
-5 842 -22 65 -85 108 -162 108 l-39 0 -1 93 c-1 110 -2 118 -26 159 -65 111
-229 96 -284 -27 -11 -23 -19 -32 -19 -21 0 51 -87 126 -146 126 -69 0 -150
-57 -161 -113 l-6 -28 -17 38 c-45 99 -144 129 -235 72z"/>
</g>
</svg>
